<mxfile host="app.diagrams.net" modified="2023-09-04T19:30:19.959Z" agent="Mozilla/5.0 (Windows NT 10.0; Win64; x64) AppleWebKit/537.36 (KHTML, like Gecko) Chrome/116.0.0.0 Safari/537.36" etag="rWideUvXIkzoW_x6iaP_" version="21.7.0" type="device">
  <diagram name="PÃ¡gina-1" id="13q3eHSmHgRCuUUV0wKx">
    <mxGraphModel dx="1434" dy="758" grid="1" gridSize="10" guides="1" tooltips="1" connect="1" arrows="1" fold="1" page="1" pageScale="1" pageWidth="1169" pageHeight="827" math="0" shadow="0">
      <root>
        <mxCell id="0" />
        <mxCell id="1" parent="0" />
        <mxCell id="9TtGT-7kSLPNAZYKs_DU-1" value="User" style="swimlane;fontStyle=1;align=center;verticalAlign=top;childLayout=stackLayout;horizontal=1;startSize=26;horizontalStack=0;resizeParent=1;resizeParentMax=0;resizeLast=0;collapsible=1;marginBottom=0;whiteSpace=wrap;html=1;" vertex="1" parent="1">
          <mxGeometry x="70" y="80" width="160" height="104" as="geometry" />
        </mxCell>
        <mxCell id="9TtGT-7kSLPNAZYKs_DU-2" value="+ userName&lt;br&gt;- password" style="text;strokeColor=none;fillColor=none;align=left;verticalAlign=top;spacingLeft=4;spacingRight=4;overflow=hidden;rotatable=0;points=[[0,0.5],[1,0.5]];portConstraint=eastwest;whiteSpace=wrap;html=1;" vertex="1" parent="9TtGT-7kSLPNAZYKs_DU-1">
          <mxGeometry y="26" width="160" height="44" as="geometry" />
        </mxCell>
        <mxCell id="9TtGT-7kSLPNAZYKs_DU-3" value="" style="line;strokeWidth=1;fillColor=none;align=left;verticalAlign=middle;spacingTop=-1;spacingLeft=3;spacingRight=3;rotatable=0;labelPosition=right;points=[];portConstraint=eastwest;strokeColor=inherit;" vertex="1" parent="9TtGT-7kSLPNAZYKs_DU-1">
          <mxGeometry y="70" width="160" height="8" as="geometry" />
        </mxCell>
        <mxCell id="9TtGT-7kSLPNAZYKs_DU-4" value="+ login()" style="text;strokeColor=none;fillColor=none;align=left;verticalAlign=top;spacingLeft=4;spacingRight=4;overflow=hidden;rotatable=0;points=[[0,0.5],[1,0.5]];portConstraint=eastwest;whiteSpace=wrap;html=1;" vertex="1" parent="9TtGT-7kSLPNAZYKs_DU-1">
          <mxGeometry y="78" width="160" height="26" as="geometry" />
        </mxCell>
        <mxCell id="9TtGT-7kSLPNAZYKs_DU-5" value="Form" style="swimlane;fontStyle=1;align=center;verticalAlign=top;childLayout=stackLayout;horizontal=1;startSize=26;horizontalStack=0;resizeParent=1;resizeParentMax=0;resizeLast=0;collapsible=1;marginBottom=0;whiteSpace=wrap;html=1;" vertex="1" parent="1">
          <mxGeometry x="400" y="80" width="160" height="100" as="geometry" />
        </mxCell>
        <mxCell id="9TtGT-7kSLPNAZYKs_DU-6" value="+ customerID&lt;br&gt;+ assignedRep&lt;br&gt;+ formContent" style="text;strokeColor=none;fillColor=none;align=left;verticalAlign=top;spacingLeft=4;spacingRight=4;overflow=hidden;rotatable=0;points=[[0,0.5],[1,0.5]];portConstraint=eastwest;whiteSpace=wrap;html=1;" vertex="1" parent="9TtGT-7kSLPNAZYKs_DU-5">
          <mxGeometry y="26" width="160" height="44" as="geometry" />
        </mxCell>
        <mxCell id="9TtGT-7kSLPNAZYKs_DU-7" value="" style="line;strokeWidth=1;fillColor=none;align=left;verticalAlign=middle;spacingTop=-1;spacingLeft=3;spacingRight=3;rotatable=0;labelPosition=right;points=[];portConstraint=eastwest;strokeColor=inherit;" vertex="1" parent="9TtGT-7kSLPNAZYKs_DU-5">
          <mxGeometry y="70" width="160" height="8" as="geometry" />
        </mxCell>
        <mxCell id="9TtGT-7kSLPNAZYKs_DU-8" value="+ displayForm()" style="text;strokeColor=none;fillColor=none;align=left;verticalAlign=top;spacingLeft=4;spacingRight=4;overflow=hidden;rotatable=0;points=[[0,0.5],[1,0.5]];portConstraint=eastwest;whiteSpace=wrap;html=1;" vertex="1" parent="9TtGT-7kSLPNAZYKs_DU-5">
          <mxGeometry y="78" width="160" height="22" as="geometry" />
        </mxCell>
        <mxCell id="9TtGT-7kSLPNAZYKs_DU-9" value="Customer" style="swimlane;fontStyle=1;align=center;verticalAlign=top;childLayout=stackLayout;horizontal=1;startSize=26;horizontalStack=0;resizeParent=1;resizeParentMax=0;resizeLast=0;collapsible=1;marginBottom=0;whiteSpace=wrap;html=1;" vertex="1" parent="1">
          <mxGeometry x="760" y="80" width="160" height="220" as="geometry" />
        </mxCell>
        <mxCell id="9TtGT-7kSLPNAZYKs_DU-10" value="+ customerID&lt;br&gt;+ assignedRep&lt;br&gt;+ name&lt;br&gt;+ location&lt;br&gt;+ phoneNumber&lt;br&gt;+ emailAddress&lt;br&gt;+ slackChannel&lt;br&gt;+ hipchatName&lt;br&gt;+ preferredCommMethod" style="text;strokeColor=none;fillColor=none;align=left;verticalAlign=top;spacingLeft=4;spacingRight=4;overflow=hidden;rotatable=0;points=[[0,0.5],[1,0.5]];portConstraint=eastwest;whiteSpace=wrap;html=1;" vertex="1" parent="9TtGT-7kSLPNAZYKs_DU-9">
          <mxGeometry y="26" width="160" height="134" as="geometry" />
        </mxCell>
        <mxCell id="9TtGT-7kSLPNAZYKs_DU-11" value="" style="line;strokeWidth=1;fillColor=none;align=left;verticalAlign=middle;spacingTop=-1;spacingLeft=3;spacingRight=3;rotatable=0;labelPosition=right;points=[];portConstraint=eastwest;strokeColor=inherit;" vertex="1" parent="9TtGT-7kSLPNAZYKs_DU-9">
          <mxGeometry y="160" width="160" height="8" as="geometry" />
        </mxCell>
        <mxCell id="9TtGT-7kSLPNAZYKs_DU-12" value="+ viewForm()&lt;br&gt;+ submitForm()" style="text;strokeColor=none;fillColor=none;align=left;verticalAlign=top;spacingLeft=4;spacingRight=4;overflow=hidden;rotatable=0;points=[[0,0.5],[1,0.5]];portConstraint=eastwest;whiteSpace=wrap;html=1;" vertex="1" parent="9TtGT-7kSLPNAZYKs_DU-9">
          <mxGeometry y="168" width="160" height="52" as="geometry" />
        </mxCell>
        <mxCell id="9TtGT-7kSLPNAZYKs_DU-17" value="E-mail" style="swimlane;fontStyle=1;align=center;verticalAlign=top;childLayout=stackLayout;horizontal=1;startSize=26;horizontalStack=0;resizeParent=1;resizeParentMax=0;resizeLast=0;collapsible=1;marginBottom=0;whiteSpace=wrap;html=1;" vertex="1" parent="1">
          <mxGeometry x="760" y="350" width="160" height="104" as="geometry" />
        </mxCell>
        <mxCell id="9TtGT-7kSLPNAZYKs_DU-18" value="+ emailAddress&lt;br&gt;+ isHTML&lt;br&gt;+ encoding" style="text;strokeColor=none;fillColor=none;align=left;verticalAlign=top;spacingLeft=4;spacingRight=4;overflow=hidden;rotatable=0;points=[[0,0.5],[1,0.5]];portConstraint=eastwest;whiteSpace=wrap;html=1;" vertex="1" parent="9TtGT-7kSLPNAZYKs_DU-17">
          <mxGeometry y="26" width="160" height="44" as="geometry" />
        </mxCell>
        <mxCell id="9TtGT-7kSLPNAZYKs_DU-19" value="" style="line;strokeWidth=1;fillColor=none;align=left;verticalAlign=middle;spacingTop=-1;spacingLeft=3;spacingRight=3;rotatable=0;labelPosition=right;points=[];portConstraint=eastwest;strokeColor=inherit;" vertex="1" parent="9TtGT-7kSLPNAZYKs_DU-17">
          <mxGeometry y="70" width="160" height="8" as="geometry" />
        </mxCell>
        <mxCell id="9TtGT-7kSLPNAZYKs_DU-20" value="+ sendEmail()" style="text;strokeColor=none;fillColor=none;align=left;verticalAlign=top;spacingLeft=4;spacingRight=4;overflow=hidden;rotatable=0;points=[[0,0.5],[1,0.5]];portConstraint=eastwest;whiteSpace=wrap;html=1;" vertex="1" parent="9TtGT-7kSLPNAZYKs_DU-17">
          <mxGeometry y="78" width="160" height="26" as="geometry" />
        </mxCell>
        <mxCell id="9TtGT-7kSLPNAZYKs_DU-21" value="SMS" style="swimlane;fontStyle=1;align=center;verticalAlign=top;childLayout=stackLayout;horizontal=1;startSize=26;horizontalStack=0;resizeParent=1;resizeParentMax=0;resizeLast=0;collapsible=1;marginBottom=0;whiteSpace=wrap;html=1;" vertex="1" parent="1">
          <mxGeometry x="760" y="520" width="160" height="104" as="geometry" />
        </mxCell>
        <mxCell id="9TtGT-7kSLPNAZYKs_DU-22" value="+ countryCode&lt;br&gt;+ phoneNumber&lt;br&gt;" style="text;strokeColor=none;fillColor=none;align=left;verticalAlign=top;spacingLeft=4;spacingRight=4;overflow=hidden;rotatable=0;points=[[0,0.5],[1,0.5]];portConstraint=eastwest;whiteSpace=wrap;html=1;" vertex="1" parent="9TtGT-7kSLPNAZYKs_DU-21">
          <mxGeometry y="26" width="160" height="44" as="geometry" />
        </mxCell>
        <mxCell id="9TtGT-7kSLPNAZYKs_DU-23" value="" style="line;strokeWidth=1;fillColor=none;align=left;verticalAlign=middle;spacingTop=-1;spacingLeft=3;spacingRight=3;rotatable=0;labelPosition=right;points=[];portConstraint=eastwest;strokeColor=inherit;" vertex="1" parent="9TtGT-7kSLPNAZYKs_DU-21">
          <mxGeometry y="70" width="160" height="8" as="geometry" />
        </mxCell>
        <mxCell id="9TtGT-7kSLPNAZYKs_DU-24" value="+ sendSMS()" style="text;strokeColor=none;fillColor=none;align=left;verticalAlign=top;spacingLeft=4;spacingRight=4;overflow=hidden;rotatable=0;points=[[0,0.5],[1,0.5]];portConstraint=eastwest;whiteSpace=wrap;html=1;" vertex="1" parent="9TtGT-7kSLPNAZYKs_DU-21">
          <mxGeometry y="78" width="160" height="26" as="geometry" />
        </mxCell>
        <mxCell id="9TtGT-7kSLPNAZYKs_DU-25" value="ExternalChannel" style="swimlane;fontStyle=1;align=center;verticalAlign=top;childLayout=stackLayout;horizontal=1;startSize=26;horizontalStack=0;resizeParent=1;resizeParentMax=0;resizeLast=0;collapsible=1;marginBottom=0;whiteSpace=wrap;html=1;" vertex="1" parent="1">
          <mxGeometry x="760" y="700" width="160" height="110" as="geometry" />
        </mxCell>
        <mxCell id="9TtGT-7kSLPNAZYKs_DU-26" value="+ channelChoice&lt;br&gt;" style="text;strokeColor=none;fillColor=none;align=left;verticalAlign=top;spacingLeft=4;spacingRight=4;overflow=hidden;rotatable=0;points=[[0,0.5],[1,0.5]];portConstraint=eastwest;whiteSpace=wrap;html=1;" vertex="1" parent="9TtGT-7kSLPNAZYKs_DU-25">
          <mxGeometry y="26" width="160" height="34" as="geometry" />
        </mxCell>
        <mxCell id="9TtGT-7kSLPNAZYKs_DU-27" value="" style="line;strokeWidth=1;fillColor=none;align=left;verticalAlign=middle;spacingTop=-1;spacingLeft=3;spacingRight=3;rotatable=0;labelPosition=right;points=[];portConstraint=eastwest;strokeColor=inherit;" vertex="1" parent="9TtGT-7kSLPNAZYKs_DU-25">
          <mxGeometry y="60" width="160" height="8" as="geometry" />
        </mxCell>
        <mxCell id="9TtGT-7kSLPNAZYKs_DU-28" value="+ sendSlack()&lt;br&gt;+ sendHipChat" style="text;strokeColor=none;fillColor=none;align=left;verticalAlign=top;spacingLeft=4;spacingRight=4;overflow=hidden;rotatable=0;points=[[0,0.5],[1,0.5]];portConstraint=eastwest;whiteSpace=wrap;html=1;" vertex="1" parent="9TtGT-7kSLPNAZYKs_DU-25">
          <mxGeometry y="68" width="160" height="42" as="geometry" />
        </mxCell>
        <mxCell id="9TtGT-7kSLPNAZYKs_DU-33" value="Journey" style="swimlane;fontStyle=1;align=center;verticalAlign=top;childLayout=stackLayout;horizontal=1;startSize=26;horizontalStack=0;resizeParent=1;resizeParentMax=0;resizeLast=0;collapsible=1;marginBottom=0;whiteSpace=wrap;html=1;" vertex="1" parent="1">
          <mxGeometry x="400" y="300" width="160" height="170" as="geometry" />
        </mxCell>
        <mxCell id="9TtGT-7kSLPNAZYKs_DU-34" value="+ ID&lt;br&gt;+ name&lt;br&gt;+ customeId&lt;br&gt;+ assignedRep&lt;br&gt;+ messageHistory: list&lt;br&gt;" style="text;strokeColor=none;fillColor=none;align=left;verticalAlign=top;spacingLeft=4;spacingRight=4;overflow=hidden;rotatable=0;points=[[0,0.5],[1,0.5]];portConstraint=eastwest;whiteSpace=wrap;html=1;" vertex="1" parent="9TtGT-7kSLPNAZYKs_DU-33">
          <mxGeometry y="26" width="160" height="94" as="geometry" />
        </mxCell>
        <mxCell id="9TtGT-7kSLPNAZYKs_DU-35" value="" style="line;strokeWidth=1;fillColor=none;align=left;verticalAlign=middle;spacingTop=-1;spacingLeft=3;spacingRight=3;rotatable=0;labelPosition=right;points=[];portConstraint=eastwest;strokeColor=inherit;" vertex="1" parent="9TtGT-7kSLPNAZYKs_DU-33">
          <mxGeometry y="120" width="160" height="8" as="geometry" />
        </mxCell>
        <mxCell id="9TtGT-7kSLPNAZYKs_DU-36" value="+ scheduleMessage()&lt;br&gt;" style="text;strokeColor=none;fillColor=none;align=left;verticalAlign=top;spacingLeft=4;spacingRight=4;overflow=hidden;rotatable=0;points=[[0,0.5],[1,0.5]];portConstraint=eastwest;whiteSpace=wrap;html=1;" vertex="1" parent="9TtGT-7kSLPNAZYKs_DU-33">
          <mxGeometry y="128" width="160" height="42" as="geometry" />
        </mxCell>
        <mxCell id="9TtGT-7kSLPNAZYKs_DU-37" value="Message" style="swimlane;fontStyle=1;align=center;verticalAlign=top;childLayout=stackLayout;horizontal=1;startSize=26;horizontalStack=0;resizeParent=1;resizeParentMax=0;resizeLast=0;collapsible=1;marginBottom=0;whiteSpace=wrap;html=1;" vertex="1" parent="1">
          <mxGeometry x="400" y="490" width="160" height="170" as="geometry" />
        </mxCell>
        <mxCell id="9TtGT-7kSLPNAZYKs_DU-38" value="+ customerID&lt;br&gt;+ assignedRep&lt;br&gt;+ preferredCommMethod&lt;br&gt;+ messageContent&lt;br&gt;+ sendDate" style="text;strokeColor=none;fillColor=none;align=left;verticalAlign=top;spacingLeft=4;spacingRight=4;overflow=hidden;rotatable=0;points=[[0,0.5],[1,0.5]];portConstraint=eastwest;whiteSpace=wrap;html=1;" vertex="1" parent="9TtGT-7kSLPNAZYKs_DU-37">
          <mxGeometry y="26" width="160" height="94" as="geometry" />
        </mxCell>
        <mxCell id="9TtGT-7kSLPNAZYKs_DU-39" value="" style="line;strokeWidth=1;fillColor=none;align=left;verticalAlign=middle;spacingTop=-1;spacingLeft=3;spacingRight=3;rotatable=0;labelPosition=right;points=[];portConstraint=eastwest;strokeColor=inherit;" vertex="1" parent="9TtGT-7kSLPNAZYKs_DU-37">
          <mxGeometry y="120" width="160" height="8" as="geometry" />
        </mxCell>
        <mxCell id="9TtGT-7kSLPNAZYKs_DU-40" value="+ sendMessage()&lt;br&gt;+ recordHistory()" style="text;strokeColor=none;fillColor=none;align=left;verticalAlign=top;spacingLeft=4;spacingRight=4;overflow=hidden;rotatable=0;points=[[0,0.5],[1,0.5]];portConstraint=eastwest;whiteSpace=wrap;html=1;" vertex="1" parent="9TtGT-7kSLPNAZYKs_DU-37">
          <mxGeometry y="128" width="160" height="42" as="geometry" />
        </mxCell>
        <mxCell id="9TtGT-7kSLPNAZYKs_DU-41" value="MarketingRep" style="swimlane;fontStyle=1;align=center;verticalAlign=top;childLayout=stackLayout;horizontal=1;startSize=26;horizontalStack=0;resizeParent=1;resizeParentMax=0;resizeLast=0;collapsible=1;marginBottom=0;whiteSpace=wrap;html=1;" vertex="1" parent="1">
          <mxGeometry x="70" y="300" width="160" height="160" as="geometry" />
        </mxCell>
        <mxCell id="9TtGT-7kSLPNAZYKs_DU-42" value="+ name&lt;br&gt;+ comany&lt;br&gt;+ region" style="text;strokeColor=none;fillColor=none;align=left;verticalAlign=top;spacingLeft=4;spacingRight=4;overflow=hidden;rotatable=0;points=[[0,0.5],[1,0.5]];portConstraint=eastwest;whiteSpace=wrap;html=1;" vertex="1" parent="9TtGT-7kSLPNAZYKs_DU-41">
          <mxGeometry y="26" width="160" height="64" as="geometry" />
        </mxCell>
        <mxCell id="9TtGT-7kSLPNAZYKs_DU-43" value="" style="line;strokeWidth=1;fillColor=none;align=left;verticalAlign=middle;spacingTop=-1;spacingLeft=3;spacingRight=3;rotatable=0;labelPosition=right;points=[];portConstraint=eastwest;strokeColor=inherit;" vertex="1" parent="9TtGT-7kSLPNAZYKs_DU-41">
          <mxGeometry y="90" width="160" height="8" as="geometry" />
        </mxCell>
        <mxCell id="9TtGT-7kSLPNAZYKs_DU-44" value="+ generateForm()&lt;br&gt;+ generateReport()&lt;br&gt;+ updateJourney()" style="text;strokeColor=none;fillColor=none;align=left;verticalAlign=top;spacingLeft=4;spacingRight=4;overflow=hidden;rotatable=0;points=[[0,0.5],[1,0.5]];portConstraint=eastwest;whiteSpace=wrap;html=1;" vertex="1" parent="9TtGT-7kSLPNAZYKs_DU-41">
          <mxGeometry y="98" width="160" height="62" as="geometry" />
        </mxCell>
        <mxCell id="9TtGT-7kSLPNAZYKs_DU-45" value="Report" style="swimlane;fontStyle=1;align=center;verticalAlign=top;childLayout=stackLayout;horizontal=1;startSize=26;horizontalStack=0;resizeParent=1;resizeParentMax=0;resizeLast=0;collapsible=1;marginBottom=0;whiteSpace=wrap;html=1;" vertex="1" parent="1">
          <mxGeometry x="70" y="530" width="160" height="130" as="geometry" />
        </mxCell>
        <mxCell id="9TtGT-7kSLPNAZYKs_DU-46" value="+ id&lt;br&gt;+ reportName&lt;br&gt;+ reportContent" style="text;strokeColor=none;fillColor=none;align=left;verticalAlign=top;spacingLeft=4;spacingRight=4;overflow=hidden;rotatable=0;points=[[0,0.5],[1,0.5]];portConstraint=eastwest;whiteSpace=wrap;html=1;" vertex="1" parent="9TtGT-7kSLPNAZYKs_DU-45">
          <mxGeometry y="26" width="160" height="64" as="geometry" />
        </mxCell>
        <mxCell id="9TtGT-7kSLPNAZYKs_DU-47" value="" style="line;strokeWidth=1;fillColor=none;align=left;verticalAlign=middle;spacingTop=-1;spacingLeft=3;spacingRight=3;rotatable=0;labelPosition=right;points=[];portConstraint=eastwest;strokeColor=inherit;" vertex="1" parent="9TtGT-7kSLPNAZYKs_DU-45">
          <mxGeometry y="90" width="160" height="8" as="geometry" />
        </mxCell>
        <mxCell id="9TtGT-7kSLPNAZYKs_DU-48" value="+ viewReport()" style="text;strokeColor=none;fillColor=none;align=left;verticalAlign=top;spacingLeft=4;spacingRight=4;overflow=hidden;rotatable=0;points=[[0,0.5],[1,0.5]];portConstraint=eastwest;whiteSpace=wrap;html=1;" vertex="1" parent="9TtGT-7kSLPNAZYKs_DU-45">
          <mxGeometry y="98" width="160" height="32" as="geometry" />
        </mxCell>
        <mxCell id="9TtGT-7kSLPNAZYKs_DU-49" value="Reminder" style="swimlane;fontStyle=1;align=center;verticalAlign=top;childLayout=stackLayout;horizontal=1;startSize=26;horizontalStack=0;resizeParent=1;resizeParentMax=0;resizeLast=0;collapsible=1;marginBottom=0;whiteSpace=wrap;html=1;" vertex="1" parent="1">
          <mxGeometry x="80" y="740" width="160" height="130" as="geometry" />
        </mxCell>
        <mxCell id="9TtGT-7kSLPNAZYKs_DU-50" value="+ id&lt;br&gt;+ interval&lt;br&gt;+ messageContent" style="text;strokeColor=none;fillColor=none;align=left;verticalAlign=top;spacingLeft=4;spacingRight=4;overflow=hidden;rotatable=0;points=[[0,0.5],[1,0.5]];portConstraint=eastwest;whiteSpace=wrap;html=1;" vertex="1" parent="9TtGT-7kSLPNAZYKs_DU-49">
          <mxGeometry y="26" width="160" height="64" as="geometry" />
        </mxCell>
        <mxCell id="9TtGT-7kSLPNAZYKs_DU-51" value="" style="line;strokeWidth=1;fillColor=none;align=left;verticalAlign=middle;spacingTop=-1;spacingLeft=3;spacingRight=3;rotatable=0;labelPosition=right;points=[];portConstraint=eastwest;strokeColor=inherit;" vertex="1" parent="9TtGT-7kSLPNAZYKs_DU-49">
          <mxGeometry y="90" width="160" height="8" as="geometry" />
        </mxCell>
        <mxCell id="9TtGT-7kSLPNAZYKs_DU-52" value="+ scheduleMessage()" style="text;strokeColor=none;fillColor=none;align=left;verticalAlign=top;spacingLeft=4;spacingRight=4;overflow=hidden;rotatable=0;points=[[0,0.5],[1,0.5]];portConstraint=eastwest;whiteSpace=wrap;html=1;" vertex="1" parent="9TtGT-7kSLPNAZYKs_DU-49">
          <mxGeometry y="98" width="160" height="32" as="geometry" />
        </mxCell>
        <mxCell id="9TtGT-7kSLPNAZYKs_DU-53" value="" style="endArrow=block;html=1;rounded=0;endFill=0;" edge="1" parent="1">
          <mxGeometry width="50" height="50" relative="1" as="geometry">
            <mxPoint x="149.5" y="300" as="sourcePoint" />
            <mxPoint x="150" y="190" as="targetPoint" />
          </mxGeometry>
        </mxCell>
        <mxCell id="9TtGT-7kSLPNAZYKs_DU-54" value="" style="endArrow=none;html=1;rounded=0;exitX=0.497;exitY=0;exitDx=0;exitDy=0;exitPerimeter=0;" edge="1" parent="1" source="9TtGT-7kSLPNAZYKs_DU-45">
          <mxGeometry width="50" height="50" relative="1" as="geometry">
            <mxPoint x="150" y="520" as="sourcePoint" />
            <mxPoint x="150" y="460" as="targetPoint" />
          </mxGeometry>
        </mxCell>
        <mxCell id="9TtGT-7kSLPNAZYKs_DU-55" value="" style="endArrow=none;html=1;rounded=0;edgeStyle=orthogonalEdgeStyle;" edge="1" parent="1">
          <mxGeometry width="50" height="50" relative="1" as="geometry">
            <mxPoint x="230" y="350" as="sourcePoint" />
            <mxPoint x="320" y="120" as="targetPoint" />
          </mxGeometry>
        </mxCell>
        <mxCell id="9TtGT-7kSLPNAZYKs_DU-56" value="" style="endArrow=none;html=1;rounded=0;" edge="1" parent="1">
          <mxGeometry width="50" height="50" relative="1" as="geometry">
            <mxPoint x="320" y="120" as="sourcePoint" />
            <mxPoint x="400" y="120" as="targetPoint" />
          </mxGeometry>
        </mxCell>
        <mxCell id="9TtGT-7kSLPNAZYKs_DU-57" value="" style="endArrow=none;html=1;rounded=0;" edge="1" parent="1">
          <mxGeometry width="50" height="50" relative="1" as="geometry">
            <mxPoint x="560" y="120" as="sourcePoint" />
            <mxPoint x="640" y="120" as="targetPoint" />
          </mxGeometry>
        </mxCell>
        <mxCell id="9TtGT-7kSLPNAZYKs_DU-58" value="" style="endArrow=none;html=1;rounded=0;edgeStyle=orthogonalEdgeStyle;exitX=-0.025;exitY=0.709;exitDx=0;exitDy=0;exitPerimeter=0;" edge="1" parent="1" source="9TtGT-7kSLPNAZYKs_DU-10">
          <mxGeometry width="50" height="50" relative="1" as="geometry">
            <mxPoint x="740" y="200" as="sourcePoint" />
            <mxPoint x="640" y="120" as="targetPoint" />
            <Array as="points">
              <mxPoint x="670" y="201" />
              <mxPoint x="670" y="121" />
            </Array>
          </mxGeometry>
        </mxCell>
        <mxCell id="9TtGT-7kSLPNAZYKs_DU-59" value="" style="endArrow=none;html=1;rounded=0;entryX=0;entryY=0.809;entryDx=0;entryDy=0;entryPerimeter=0;" edge="1" parent="1" target="9TtGT-7kSLPNAZYKs_DU-34">
          <mxGeometry width="50" height="50" relative="1" as="geometry">
            <mxPoint x="230" y="401.5" as="sourcePoint" />
            <mxPoint x="320" y="401.5" as="targetPoint" />
            <Array as="points">
              <mxPoint x="240" y="401.5" />
            </Array>
          </mxGeometry>
        </mxCell>
        <mxCell id="9TtGT-7kSLPNAZYKs_DU-61" value="" style="endArrow=none;html=1;rounded=0;endFill=0;edgeStyle=orthogonalEdgeStyle;" edge="1" parent="1">
          <mxGeometry width="50" height="50" relative="1" as="geometry">
            <mxPoint x="400" y="414" as="sourcePoint" />
            <mxPoint x="300" y="810" as="targetPoint" />
          </mxGeometry>
        </mxCell>
        <mxCell id="9TtGT-7kSLPNAZYKs_DU-62" value="" style="endArrow=none;html=1;rounded=0;" edge="1" parent="1">
          <mxGeometry width="50" height="50" relative="1" as="geometry">
            <mxPoint x="240" y="810" as="sourcePoint" />
            <mxPoint x="300" y="810" as="targetPoint" />
          </mxGeometry>
        </mxCell>
        <mxCell id="9TtGT-7kSLPNAZYKs_DU-63" value="" style="endArrow=none;html=1;rounded=0;exitX=0.5;exitY=0;exitDx=0;exitDy=0;" edge="1" parent="1" source="9TtGT-7kSLPNAZYKs_DU-33">
          <mxGeometry width="50" height="50" relative="1" as="geometry">
            <mxPoint x="479.5" y="254" as="sourcePoint" />
            <mxPoint x="479.5" y="184" as="targetPoint" />
          </mxGeometry>
        </mxCell>
        <mxCell id="9TtGT-7kSLPNAZYKs_DU-66" value="" style="endArrow=block;html=1;rounded=0;endFill=0;edgeStyle=elbowEdgeStyle;entryX=1;entryY=0.5;entryDx=0;entryDy=0;exitX=0;exitY=0.5;exitDx=0;exitDy=0;" edge="1" parent="1">
          <mxGeometry width="50" height="50" relative="1" as="geometry">
            <mxPoint x="760" y="380" as="sourcePoint" />
            <mxPoint x="560" y="545" as="targetPoint" />
            <Array as="points">
              <mxPoint x="650" y="472" />
            </Array>
          </mxGeometry>
        </mxCell>
        <mxCell id="9TtGT-7kSLPNAZYKs_DU-67" value="" style="endArrow=block;html=1;rounded=0;entryX=1.019;entryY=0.702;entryDx=0;entryDy=0;entryPerimeter=0;endFill=0;" edge="1" parent="1" target="9TtGT-7kSLPNAZYKs_DU-38">
          <mxGeometry width="50" height="50" relative="1" as="geometry">
            <mxPoint x="760" y="580.5" as="sourcePoint" />
            <mxPoint x="570" y="580" as="targetPoint" />
          </mxGeometry>
        </mxCell>
        <mxCell id="9TtGT-7kSLPNAZYKs_DU-68" value="" style="endArrow=block;html=1;rounded=0;edgeStyle=elbowEdgeStyle;endFill=0;exitX=0;exitY=1;exitDx=0;exitDy=0;exitPerimeter=0;entryX=1;entryY=0.5;entryDx=0;entryDy=0;" edge="1" parent="1" source="9TtGT-7kSLPNAZYKs_DU-26" target="9TtGT-7kSLPNAZYKs_DU-40">
          <mxGeometry width="50" height="50" relative="1" as="geometry">
            <mxPoint x="710" y="760" as="sourcePoint" />
            <mxPoint x="635" y="760" as="targetPoint" />
          </mxGeometry>
        </mxCell>
        <mxCell id="9TtGT-7kSLPNAZYKs_DU-69" value="1" style="text;html=1;strokeColor=none;fillColor=none;align=center;verticalAlign=middle;whiteSpace=wrap;rounded=0;" vertex="1" parent="1">
          <mxGeometry x="106" y="184" width="60" height="30" as="geometry" />
        </mxCell>
        <mxCell id="9TtGT-7kSLPNAZYKs_DU-70" value="1" style="text;html=1;strokeColor=none;fillColor=none;align=center;verticalAlign=middle;whiteSpace=wrap;rounded=0;" vertex="1" parent="1">
          <mxGeometry x="130" y="274" width="60" height="30" as="geometry" />
        </mxCell>
        <mxCell id="9TtGT-7kSLPNAZYKs_DU-71" value="0.. *" style="text;html=1;strokeColor=none;fillColor=none;align=center;verticalAlign=middle;whiteSpace=wrap;rounded=0;" vertex="1" parent="1">
          <mxGeometry x="370" y="90" width="30" height="30" as="geometry" />
        </mxCell>
        <mxCell id="9TtGT-7kSLPNAZYKs_DU-73" value="1.. *" style="text;html=1;strokeColor=none;fillColor=none;align=center;verticalAlign=middle;whiteSpace=wrap;rounded=0;" vertex="1" parent="1">
          <mxGeometry x="230" y="344" width="30" height="30" as="geometry" />
        </mxCell>
        <mxCell id="9TtGT-7kSLPNAZYKs_DU-74" value="0.. *" style="text;html=1;strokeColor=none;fillColor=none;align=center;verticalAlign=middle;whiteSpace=wrap;rounded=0;" vertex="1" parent="1">
          <mxGeometry x="370" y="379" width="30" height="30" as="geometry" />
        </mxCell>
        <mxCell id="9TtGT-7kSLPNAZYKs_DU-76" value="1" style="text;html=1;strokeColor=none;fillColor=none;align=center;verticalAlign=middle;whiteSpace=wrap;rounded=0;" vertex="1" parent="1">
          <mxGeometry x="206" y="398" width="60" height="30" as="geometry" />
        </mxCell>
        <mxCell id="9TtGT-7kSLPNAZYKs_DU-77" value="0.. *" style="text;html=1;strokeColor=none;fillColor=none;align=center;verticalAlign=middle;whiteSpace=wrap;rounded=0;" vertex="1" parent="1">
          <mxGeometry x="370" y="409" width="30" height="30" as="geometry" />
        </mxCell>
        <mxCell id="9TtGT-7kSLPNAZYKs_DU-78" value="0.. *" style="text;html=1;strokeColor=none;fillColor=none;align=center;verticalAlign=middle;whiteSpace=wrap;rounded=0;" vertex="1" parent="1">
          <mxGeometry x="238" y="804" width="30" height="30" as="geometry" />
        </mxCell>
        <mxCell id="9TtGT-7kSLPNAZYKs_DU-79" value="0.. *" style="text;html=1;strokeColor=none;fillColor=none;align=center;verticalAlign=middle;whiteSpace=wrap;rounded=0;" vertex="1" parent="1">
          <mxGeometry x="122" y="455" width="30" height="30" as="geometry" />
        </mxCell>
        <mxCell id="9TtGT-7kSLPNAZYKs_DU-81" value="0.. *" style="text;html=1;strokeColor=none;fillColor=none;align=center;verticalAlign=middle;whiteSpace=wrap;rounded=0;" vertex="1" parent="1">
          <mxGeometry x="153" y="504" width="30" height="30" as="geometry" />
        </mxCell>
        <mxCell id="9TtGT-7kSLPNAZYKs_DU-82" value="0.. *" style="text;html=1;strokeColor=none;fillColor=none;align=center;verticalAlign=middle;whiteSpace=wrap;rounded=0;" vertex="1" parent="1">
          <mxGeometry x="730" y="740" width="30" height="30" as="geometry" />
        </mxCell>
        <mxCell id="9TtGT-7kSLPNAZYKs_DU-83" value="0.. *" style="text;html=1;strokeColor=none;fillColor=none;align=center;verticalAlign=middle;whiteSpace=wrap;rounded=0;" vertex="1" parent="1">
          <mxGeometry x="567" y="634" width="30" height="30" as="geometry" />
        </mxCell>
        <mxCell id="9TtGT-7kSLPNAZYKs_DU-84" value="0.. *" style="text;html=1;strokeColor=none;fillColor=none;align=center;verticalAlign=middle;whiteSpace=wrap;rounded=0;" vertex="1" parent="1">
          <mxGeometry x="566" y="577" width="30" height="30" as="geometry" />
        </mxCell>
        <mxCell id="9TtGT-7kSLPNAZYKs_DU-85" value="0.. *" style="text;html=1;strokeColor=none;fillColor=none;align=center;verticalAlign=middle;whiteSpace=wrap;rounded=0;" vertex="1" parent="1">
          <mxGeometry x="730" y="557" width="30" height="30" as="geometry" />
        </mxCell>
        <mxCell id="9TtGT-7kSLPNAZYKs_DU-86" value="0.. *" style="text;html=1;strokeColor=none;fillColor=none;align=center;verticalAlign=middle;whiteSpace=wrap;rounded=0;" vertex="1" parent="1">
          <mxGeometry x="567" y="540" width="30" height="30" as="geometry" />
        </mxCell>
        <mxCell id="9TtGT-7kSLPNAZYKs_DU-87" value="0.. *" style="text;html=1;strokeColor=none;fillColor=none;align=center;verticalAlign=middle;whiteSpace=wrap;rounded=0;" vertex="1" parent="1">
          <mxGeometry x="730" y="360" width="30" height="30" as="geometry" />
        </mxCell>
        <mxCell id="9TtGT-7kSLPNAZYKs_DU-89" value="0.. *" style="text;html=1;strokeColor=none;fillColor=none;align=center;verticalAlign=middle;whiteSpace=wrap;rounded=0;" vertex="1" parent="1">
          <mxGeometry x="730" y="179" width="30" height="30" as="geometry" />
        </mxCell>
        <mxCell id="9TtGT-7kSLPNAZYKs_DU-90" value="1" style="text;html=1;strokeColor=none;fillColor=none;align=center;verticalAlign=middle;whiteSpace=wrap;rounded=0;" vertex="1" parent="1">
          <mxGeometry x="536" y="117" width="60" height="30" as="geometry" />
        </mxCell>
        <mxCell id="9TtGT-7kSLPNAZYKs_DU-91" value="1" style="text;html=1;strokeColor=none;fillColor=none;align=center;verticalAlign=middle;whiteSpace=wrap;rounded=0;" vertex="1" parent="1">
          <mxGeometry x="450" y="179" width="30" height="30" as="geometry" />
        </mxCell>
        <mxCell id="9TtGT-7kSLPNAZYKs_DU-93" value="1" style="text;html=1;strokeColor=none;fillColor=none;align=center;verticalAlign=middle;whiteSpace=wrap;rounded=0;" vertex="1" parent="1">
          <mxGeometry x="480" y="273" width="30" height="30" as="geometry" />
        </mxCell>
        <mxCell id="9TtGT-7kSLPNAZYKs_DU-94" value="" style="endArrow=none;html=1;rounded=0;" edge="1" parent="1">
          <mxGeometry width="50" height="50" relative="1" as="geometry">
            <mxPoint x="480" y="490" as="sourcePoint" />
            <mxPoint x="480" y="470" as="targetPoint" />
          </mxGeometry>
        </mxCell>
        <mxCell id="9TtGT-7kSLPNAZYKs_DU-95" value="1" style="text;html=1;strokeColor=none;fillColor=none;align=center;verticalAlign=middle;whiteSpace=wrap;rounded=0;" vertex="1" parent="1">
          <mxGeometry x="460" y="460" width="30" height="30" as="geometry" />
        </mxCell>
        <mxCell id="9TtGT-7kSLPNAZYKs_DU-96" value="0.. *" style="text;html=1;strokeColor=none;fillColor=none;align=center;verticalAlign=middle;whiteSpace=wrap;rounded=0;" vertex="1" parent="1">
          <mxGeometry x="480" y="470" width="30" height="30" as="geometry" />
        </mxCell>
      </root>
    </mxGraphModel>
  </diagram>
</mxfile>
